<?xml version="1.0" encoding="UTF-8" standalone="no"?>
<svg
     xmlns="http://www.w3.org/2000/svg"

     width="128" height="128" version="1.0">
    <path d="M 15.15625 24.15625 C 11.06279 24.15625 7.75 27.469038 7.75 31.5625 L 7.75 44.6875 L 7.75 55.90625 L 7.75 96.4375 C 7.75 100.53096 11.06279 103.8125 15.15625 103.8125 L 112.84375 103.8125 C 116.93721 103.8125 120.25 100.53096 120.25 96.4375 L 120.25 44.6875 C 120.25 40.594038 116.93713 37.33765 112.84375 37.3125 L 53.40625 37.3125 L 53.40625 31.5625 C 53.40625 27.469038 50.12471 24.15625 46.03125 24.15625 L 15.15625 24.15625 z M 70.65625 55.15625 L 74.53125 55.15625 L 67.78125 83.0625 L 63.96875 83.0625 L 70.65625 55.15625 z M 51.8125 59.03125 L 51.8125 64.28125 L 38.875 69.21875 L 51.8125 74.34375 L 51.8125 79.53125 L 33.28125 71.5 L 33.28125 67.03125 L 51.8125 59.03125 z M 76.1875 59.0625 L 94.71875 67.0625 L 94.71875 71.5 L 76.1875 79.53125 L 76.1875 74.34375 L 89.125 69.28125 L 76.1875 64.25 L 76.1875 59.0625 z " fill="#00C1EC"/>
</svg>