<svg width="24" height="24" viewBox="0 0 24 24" fill="none" xmlns="http://www.w3.org/2000/svg">
<g filter="url(#filter0_d_501_160)">
<path d="M15 22.7503C14.37 22.7503 13.78 22.5104 13.34 22.0604L11.82 20.5404C11.7 20.4204 11.38 20.2904 11.22 20.2904H9.06C7.76 20.2904 6.70999 19.2403 6.70999 17.9403V15.7804C6.70999 15.6204 6.57999 15.3004 6.45999 15.1804L4.94 13.6604C4.5 13.2204 4.25 12.6303 4.25 12.0003C4.25 11.3703 4.49 10.7803 4.94 10.3403L6.45999 8.82028C6.57999 8.70028 6.70999 8.3803 6.70999 8.2203V6.06039C6.70999 4.76039 7.76 3.71029 9.06 3.71029H11.22C11.38 3.71029 11.7 3.58029 11.82 3.46029L13.34 1.94027C14.22 1.06027 15.78 1.06027 16.66 1.94027L18.18 3.46029C18.3 3.58029 18.62 3.71029 18.78 3.71029H20.94C22.24 3.71029 23.29 4.76039 23.29 6.06039V8.2203C23.29 8.3803 23.42 8.70028 23.54 8.82028L25.06 10.3403C25.5 10.7803 25.75 11.3703 25.75 12.0003C25.75 12.6303 25.51 13.2204 25.06 13.6604L23.54 15.1804C23.42 15.3004 23.29 15.6204 23.29 15.7804V17.9403C23.29 19.2403 22.24 20.2904 20.94 20.2904H18.78C18.62 20.2904 18.3 20.4204 18.18 20.5404L16.66 22.0604C16.22 22.5104 15.63 22.7503 15 22.7503ZM7.51999 14.1203C7.91999 14.5203 8.20999 15.2204 8.20999 15.7804V17.9403C8.20999 18.4103 8.59 18.7904 9.06 18.7904H11.22C11.78 18.7904 12.48 19.0803 12.88 19.4803L14.4 21.0003C14.72 21.3203 15.28 21.3203 15.6 21.0003L17.12 19.4803C17.52 19.0803 18.22 18.7904 18.78 18.7904H20.94C21.41 18.7904 21.79 18.4103 21.79 17.9403V15.7804C21.79 15.2204 22.08 14.5203 22.48 14.1203L24 12.6003C24.16 12.4403 24.25 12.2303 24.25 12.0003C24.25 11.7703 24.16 11.5604 24 11.4004L22.48 9.88034C22.08 9.48034 21.79 8.7803 21.79 8.2203V6.06039C21.79 5.59039 21.41 5.21029 20.94 5.21029H18.78C18.22 5.21029 17.52 4.92035 17.12 4.52035L15.6 3.00033C15.28 2.68033 14.72 2.68033 14.4 3.00033L12.88 4.52035C12.48 4.92035 11.78 5.21029 11.22 5.21029H9.06C8.59 5.21029 8.20999 5.59039 8.20999 6.06039V8.2203C8.20999 8.7803 7.91999 9.48034 7.51999 9.88034L6 11.4004C5.84 11.5604 5.75 11.7703 5.75 12.0003C5.75 12.2303 5.84 12.4403 6 12.6003L7.51999 14.1203Z" fill="#9197B3"/>
<path d="M18.0002 16C17.4402 16 16.9902 15.55 16.9902 15C16.9902 14.45 17.4402 14 17.9902 14C18.5402 14 18.9902 14.45 18.9902 15C18.9902 15.55 18.5502 16 18.0002 16Z" fill="#9197B3"/>
<path d="M12.01 10C11.45 10 11 9.55 11 9C11 8.45 11.45 8 12 8C12.55 8 13 8.45 13 9C13 9.55 12.56 10 12.01 10Z" fill="#9197B3"/>
<path d="M11.9995 15.7495C11.8095 15.7495 11.6195 15.6795 11.4695 15.5295C11.1795 15.2395 11.1795 14.7595 11.4695 14.4695L17.4695 8.46945C17.7595 8.17945 18.2395 8.17945 18.5295 8.46945C18.8195 8.75945 18.8195 9.23951 18.5295 9.52951L12.5295 15.5295C12.3795 15.6795 12.1895 15.7495 11.9995 15.7495Z" fill="#9197B3"/>
</g>
<defs>
<filter id="filter0_d_501_160" x="0" y="0" width="24" height="24" filterUnits="userSpaceOnUse" >
<feComposite in2="hardAlpha" operator="out"/>
</filter>
</defs>
</svg>
