<?xml version="1.0" encoding="utf-8"?>
<!-- Generator: Adobe Illustrator 17.1.0, SVG Export Plug-In . SVG Version: 6.00 Build 0)  -->
<!DOCTYPE svg PUBLIC "-//W3C//DTD SVG 1.1//EN" "http://www.w3.org/Graphics/SVG/1.1/DTD/svg11.dtd">
<svg version="1.1" id="Layer_1" xmlns="http://www.w3.org/2000/svg" xmlns:xlink="http://www.w3.org/1999/xlink" x="0px" y="0px"
	 viewBox="0 0 841.9 595.3" enable-background="new 0 0 841.9 595.3" xml:space="preserve">
<g>
	<g>
		<g>
			<circle fill="#D86943" cx="724.4" cy="205.1" r="12.9"/>
		</g>
	</g>
	<g>
		<g>
			<circle fill="#509C58" cx="595.4" cy="246.2" r="30.5"/>
		</g>
	</g>
	<path d="M276.9,241.4c6.5-5.7,9.8-12.5,9.8-20.2c0-5.5-1.7-10.6-5.1-15.1c-3.2-4.2-7.5-7.7-12.6-10.1c-5.1-2.5-10.6-3.7-16.2-3.7
		c-8.7,0-16.7,2.9-23.9,8.6l-0.3,0.3c-2.4,2.3-2.9,4.7-2.9,6.4c0,4.8,2.7,6.5,4.3,7.1c1.7,0.6,2.7,0.9,3.7,0.9c2,0,4-0.7,6.1-2.2
		c4.5-3.3,8.9-5,13.1-5c4.3,0,8.2,1.4,12.1,4.1c3.5,2.5,5.2,5.3,5.2,8.8c0,3.5-1.4,6.4-4.2,9c-2.9,2.6-6.4,3.9-10.5,3.9h-17.2
		c-2.3,0-4.4,0.8-6,2.4c-1.6,1.6-2.5,3.6-2.5,6c0,2.4,0.9,4.5,2.5,6.1c1.6,1.6,3.7,2.4,6,2.4h17.2c5.4,0,9.9,1.5,13.5,4.5
		c3.4,2.9,5.1,6.7,5.1,11.7c0,3.3-0.9,6-2.8,8.5c-2,2.6-4.6,4.7-7.9,6.1c-3.3,1.5-6.8,2.2-10.5,2.2c-3.6,0-6.8-0.7-9.9-2.2
		c-3.2-1.5-5.9-3.4-8.2-5.9l-0.1-0.2c-2.1-2-4.3-3.1-6.7-3.1c-5.1,0-8.3,3-8.3,7.7c0,1.7,0.6,3.5,1.8,5.2l0.3,0.4
		c8.3,9.4,18.7,14.1,31.2,14.1c6.4,0,12.6-1.4,18.3-4.1c5.7-2.8,10.5-6.6,14.1-11.6c3.7-5.1,5.6-10.9,5.6-17.4
		C290.7,256.4,286.1,247.8,276.9,241.4z"/>
	<path d="M369.3,241.1c6.4-4.9,9.7-11.4,9.7-19.4c0-6.9-1.7-12.7-5.1-17.1c-3.3-4.4-7.9-7.6-13.6-9.6c-5.3-1.8-11.5-2.7-18.3-2.7
		h-23.7c-2.3,0-4.4,0.9-6,2.5c-1.6,1.6-2.5,3.7-2.5,6v91c0,2.3,0.9,4.4,2.5,6c1.6,1.6,3.7,2.5,6,2.5h27c6.7,0,12.9-1.3,18.6-3.8
		c5.8-2.6,10.6-6.4,14.2-11.3c3.7-5,5.6-11.1,5.6-17.9c0-6.3-1.8-11.9-5.5-16.9C375.7,246.8,372.7,243.7,369.3,241.1z M342,232
		l-14.8,0v-22.4h15.5c8.6,0,14.5,1.6,17,4.8c1.3,1.6,2,4,2,7.3c0,3-0.6,5.2-1.9,6.4c-1.4,1.4-3.5,2.4-6.2,2.9
		C350.4,231.7,346.4,232,342,232z M363.8,275.5c-2,2.4-4.5,4.2-7.6,5.4c-3.3,1.3-7,2-10.9,2l-18.1,0v-33.4h18.1
		c5.8,0,10.7,1.7,15.1,5.2c4.1,3.3,6.1,7.4,6.1,12.6C366.5,270.6,365.6,273.3,363.8,275.5z"/>
	<path d="M411.3,192.2c-2.4,0-4.5,0.9-6.1,2.5c-1.6,1.6-2.5,3.7-2.5,6v91c0,2.3,0.9,4.4,2.5,6c1.6,1.6,3.7,2.5,6.1,2.5
		c2.4,0,4.5-0.9,6.1-2.5c1.6-1.6,2.5-3.7,2.5-6v-91c0-2.3-0.9-4.4-2.5-6C415.9,193.1,413.7,192.2,411.3,192.2z"/>
	<path d="M512.3,192.2c-2.5,0-4.7,0.9-6.3,2.5c-1.6,1.6-2.5,3.7-2.5,6v35.7h-44.7v-35.7c0-2.3-0.9-4.4-2.5-6
		c-1.6-1.6-3.7-2.5-6.1-2.5c-2.5,0-4.7,0.9-6.3,2.5c-1.6,1.6-2.5,3.7-2.5,6v91c0,2.3,0.9,4.4,2.5,6c1.6,1.6,3.8,2.5,6.3,2.5
		c2.4,0,4.5-0.9,6.1-2.5c1.6-1.6,2.5-3.7,2.5-6v-38.1h44.7v38.1c0,2.3,0.9,4.4,2.5,6c1.6,1.6,3.8,2.5,6.3,2.5c2.4,0,4.5-0.9,6.1-2.5
		c1.6-1.6,2.5-3.7,2.5-6v-91c0-2.3-0.9-4.4-2.5-6C516.8,193.1,514.7,192.2,512.3,192.2z"/>
	<path d="M623.9,199.5c-8.2-4.8-17.5-7.3-27.8-7.3c-10.2,0-19.6,2.4-28,7.2c-8.4,4.8-15.2,11.3-20.2,19.4c-5,8.1-7.5,17.3-7.5,27.3
		c0,9.9,2.5,19,7.5,27.2c5,8.1,11.8,14.7,20.2,19.5c8.4,4.9,17.9,7.3,28.1,7.3c10.3,0,19.7-2.5,27.8-7.3
		c8.1-4.8,14.7-11.4,19.4-19.6c4.7-8.2,7.2-17.3,7.2-27.1c0-9.9-2.4-19.1-7.2-27.2C638.6,210.8,632,204.3,623.9,199.5z M596.1,284
		c-7,0-13.5-1.7-19.2-5.1c-5.9-3.5-10.6-8.1-14.1-13.9c-3.5-5.7-5.2-12-5.2-18.8c0-10.5,3.7-19.3,11.3-26.8
		c7.6-7.5,16.5-11.1,27.2-11.1c7,0,13.4,1.7,18.9,5c5.6,3.4,10.1,8,13.3,13.8c3.3,5.7,4.9,12.2,4.9,19.1c0,6.8-1.7,13.2-4.9,18.9
		c-3.3,5.7-7.8,10.4-13.3,13.8C609.4,282.3,603.2,284,596.1,284z"/>
	<path d="M203,285.3c-1.6-1.6-3.7-2.5-6-2.5h0.5c0,0,0,0,0,0l-2,0c0-0.1-0.1-0.2-0.1-0.3l-0.1-0.2c-0.2-0.5-1.3-2.9-5.9-13.9
		c-3.6-8.5-7.7-18.2-12.3-29.1c-4.6-10.9-8.6-20.7-12.2-29.3l-5.5-12.7l-0.2-0.5c-1.8-3-4.5-4.7-7.6-4.7c0,0,0,0-0.1,0
		c-3.2,0-6,2.1-7.3,5l-0.9,1.9l-5.4,11.8c-3.6,8.4-7.6,17.9-12,28.5c-4.6,11-8.7,20.7-12.3,29.2c-3.6,8.4-5.6,13.2-6,14.2
		c0,0,0,0,0,0h-2.2c0,0,0,0,0,0h0.6c-2.3,0-4.4,0.9-6,2.5c-1.6,1.6-2.5,3.7-2.5,6.1c0,2.4,0.9,4.5,2.5,6.1c1.6,1.6,3.7,2.5,6,2.5h91
		c2.3,0,4.4-0.9,6-2.5c1.6-1.6,2.5-3.7,2.5-6.1C205.5,289,204.6,286.9,203,285.3z M134.6,262.7c2.7-6.6,5.4-13.2,8.1-19.8
		c2.7-6.6,5-12.1,6.9-16.7c0.8-2,1.5-3.5,1.9-4.6c0.4,1,0.9,2.2,1.4,3.5c1.7,4.1,3.7,9.2,6.2,15.2c3.5,8.6,7.1,17.2,10.6,25.8
		c2.9,7,5.2,12.6,6.9,16.8h-50.2C128.4,277.9,131.2,271.1,134.6,262.7z"/>
	<path d="M134.2,212.3"/>
	<path d="M735.9,287l-4.5-7.3c-3.1-4.7-6.6-10.2-10.5-16.4c-4-6.2-7.5-11.8-10.7-16.8c-3.2-4.9-5-7.8-5.6-8.7c0-0.1-0.1-0.1-0.1-0.2
		h-17.2v-0.2v-6.2v-17.8V203v-2.3c0-2.3-0.9-4.4-2.5-6c-1.6-1.6-3.7-2.5-6.1-2.5c-2.5,0-4.7,0.9-6.3,2.5c-1.6,1.6-2.5,3.7-2.5,6v91
		c0,2.3,0.9,4.4,2.5,6c1.6,1.6,3.8,2.5,6.3,2.5c2.4,0,4.5-0.9,6.1-2.5c1.6-1.6,2.5-3.7,2.5-6v-28.6c0-2,0.2-3.1,0.3-3.7
		c0.2-0.6,0.5-1.1,1-1.8l4.5-5.8c0.9,1.4,2,3.2,3.5,5.5c3,4.7,6.4,10.1,10.1,16.1c3.8,6,7.2,11.3,10.1,15.9l4.4,7
		c1.6,2.5,3.6,3.4,5,3.6c1.1,0.2,1.8,0.3,2.3,0.3c1.3,0,2.6-0.4,4.4-1.3l0.6-0.4c2.4-1.8,3.8-4.3,3.8-7.1
		C737.3,289.9,736.8,288.4,735.9,287z"/>
	<g>
		<path fill="#509C58" d="M734.9,345.6H100.2c-1.5,0-2.7,1.2-2.7,2.7l0,0c0,1.5,1.2,2.7,2.7,2.7h634.7c1.5,0,2.7-1.2,2.7-2.7l0,0
			C737.6,346.8,736.4,345.6,734.9,345.6z"/>
	</g>
	<g>
		<path d="M113.2,374.7H99.7c-0.6,0-1.1,0.2-1.6,0.7c-0.4,0.4-0.6,1-0.6,1.6c0,0.6,0.2,1.2,0.7,1.6c0.4,0.4,1,0.6,1.6,0.6h4.4v16.5
			c0,0.6,0.2,1.2,0.7,1.6c0.4,0.4,1,0.7,1.7,0.7c0.6,0,1.2-0.2,1.6-0.6c0.4-0.4,0.7-1,0.7-1.6v-16.5h4.4c0.6,0,1.2-0.2,1.6-0.7
			c0.4-0.4,0.6-1,0.6-1.6c0-0.6-0.2-1.2-0.7-1.6C114.3,374.9,113.8,374.7,113.2,374.7z"/>
		<path d="M146.4,377.6c-2.4-2.3-5.3-3.5-8.7-3.5c-3.4,0-6.3,1.2-8.7,3.5c-2.4,2.4-3.6,5.3-3.6,8.6c0,3.4,1.2,6.3,3.6,8.7
			c2.4,2.4,5.3,3.6,8.7,3.6c3.5,0,6.7-1.4,9.3-4.3c0.4-0.5,0.6-1.1,0.6-1.7c0-0.8-0.3-1.4-1.1-1.9c-1.3-0.7-2.4-0.5-3.8,1.3
			c-0.5,0.6-1.2,1.1-2.1,1.5c-1,0.4-2,0.7-3,0.7c-1.9,0-3.7-0.8-5.4-2.5c-1.3-1.3-2.1-3-2.2-5l0,0h17.2c1.2,0,1.7-0.6,1.9-1.1
			c0.2-0.5,0.3-0.9,0.3-1.4l0-0.3C149.1,381.5,148.1,379.4,146.4,377.6z M131.3,382.1c0.3-0.4,0.6-0.8,1-1.2
			c1.5-1.6,3.3-2.4,5.4-2.4c2.1,0,3.8,0.8,5.4,2.4c0.4,0.4,0.8,0.8,1,1.2C136.2,382.1,132.8,382.1,131.3,382.1z"/>
		<path d="M168.8,385.8c-0.1-0.1-0.1-0.2-0.2-0.2c0-0.1,0.1-0.2,0.2-0.3l4.9-8.4c0.2-0.3,0.3-0.6,0.3-0.8c0-0.7-0.5-1.3-1.5-1.3
			h-1.4c-0.4,0-0.9,0.1-1.3,0.3c-0.5,0.2-0.8,0.6-1.1,1l-2.5,5.4l-2.6-5.4c-0.2-0.4-0.5-0.7-1-1c-0.4-0.2-0.9-0.4-1.3-0.4h-1.4
			c-1,0-1.5,0.7-1.5,1.4c0,0.2,0,0.4,0.2,0.8c3.7,6.2,4.8,8.1,5.1,8.6c0,0.1-0.1,0.2-0.2,0.4l-6,10c-0.1,0.3-0.1,0.5-0.1,0.8
			c0,0.6,0.4,1.3,1.4,1.3h1.4c0.5,0,0.9-0.1,1.3-0.4c0.4-0.3,0.8-0.6,1-1l3.8-7.5l3.7,7.5c0.2,0.4,0.6,0.7,1,1
			c0.4,0.3,0.9,0.4,1.3,0.4h1.3c1.1,0,1.5-0.7,1.5-1.4c0-0.3-0.1-0.6-0.3-0.8L168.8,385.8z"/>
		<path d="M201.8,375.3c-0.4,0.4-0.7,1-0.7,1.6v6.7h-11.2v-6.7c0-0.6-0.2-1.2-0.7-1.6c-0.9-0.9-2.5-0.8-3.3,0
			c-0.4,0.4-0.7,1-0.7,1.6v18.8c0,0.6,0.2,1.2,0.7,1.6c0.8,0.8,2.4,0.9,3.3,0c0.4-0.4,0.7-1,0.7-1.6v-7.5h11.2v7.5
			c0,0.6,0.2,1.2,0.7,1.6c0.4,0.4,1,0.7,1.7,0.7c0.6,0,1.2-0.2,1.6-0.6c0.4-0.4,0.7-1,0.7-1.6v-18.8c0-0.6-0.2-1.2-0.7-1.6
			C204.2,374.4,202.6,374.5,201.8,375.3z"/>
		<path d="M218.3,375.3c-0.4,0.4-0.7,1-0.7,1.6v18.8c0,0.6,0.2,1.2,0.7,1.6c0.4,0.4,1,0.7,1.6,0.7s1.2-0.2,1.6-0.6
			c0.4-0.4,0.7-1,0.7-1.6v-18.8c0-0.6-0.2-1.2-0.7-1.6C220.6,374.5,219.1,374.5,218.3,375.3z"/>
		<path d="M217.6,367.3c-0.6,0.6-1,1.4-1,2.3c0,0.9,0.3,1.7,1,2.2c0.6,0.6,1.4,0.8,2.3,0.8c0.9,0,1.6-0.3,2.2-0.9
			c0.6-0.6,0.9-1.3,0.9-2.2c0-0.9-0.3-1.6-0.9-2.3C220.9,366.1,218.8,366.1,217.6,367.3z"/>
		<path d="M250.1,392.8c-0.7-1-1.6-2.1-2.6-3.3l-2.6-3.4c-0.6-0.8-1-1.3-1.2-1.6c0.4-0.4,1.4-1.3,3-2.7l3-2.7
			c0.5-0.4,0.7-0.9,0.8-1.6c0-0.6-0.2-1.2-0.7-1.7c-0.4-0.4-0.9-0.7-1.6-0.7c-0.6,0-1.1,0.2-1.6,0.6l-7.3,6.7
			c-0.3,0.2-0.5,0.5-0.7,0.6v-6.2c0-0.6-0.2-1.2-0.7-1.6c-0.9-0.9-2.5-0.8-3.3,0c-0.4,0.4-0.7,1-0.7,1.6v18.8c0,0.6,0.2,1.2,0.7,1.6
			c0.4,0.4,1,0.7,1.7,0.7c0.6,0,1.2-0.2,1.6-0.6c0.4-0.4,0.7-1,0.7-1.6v-6.6c0-0.2,0.1-0.3,0.1-0.3c0.2-0.2,0.5-0.5,0.8-0.8
			c0.3-0.3,0.5-0.5,0.8-0.8c0.1-0.1,0.2-0.2,0.3-0.2c0.2,0.3,0.5,0.8,1,1.4c0.7,1,1.5,2.2,2.5,3.5l3.4,5.1c0.4,0.5,0.8,0.8,1.4,0.9
			h0.5c0.6,0,1.1-0.2,1.4-0.5c0.7-0.6,0.8-1.2,0.8-1.7c0-0.5-0.1-1-0.4-1.4L250.1,392.8z"/>
		<path d="M280.8,375.3c-0.4,0.4-0.7,1-0.7,1.6v0.1c-0.8-0.8-1.8-1.4-2.9-1.9c-1.5-0.6-3.2-1-4.8-1c-3.4,0-6.3,1.2-8.7,3.6
			c-2.4,2.4-3.6,5.3-3.6,8.7c0,3.4,1.2,6.3,3.6,8.6c2.4,2.3,5.3,3.5,8.7,3.5c3,0,5.5-1,7.7-2.8v0.1c0,0.6,0.2,1.2,0.7,1.6
			c0.9,0.9,2.4,0.9,3.3,0c0.4-0.4,0.6-1,0.6-1.6v-18.9c0-0.6-0.2-1.2-0.7-1.6C283.2,374.4,281.7,374.4,280.8,375.3z M280.1,386.4
			c0,2.1-0.7,3.9-2.2,5.5c-1.5,1.5-3.3,2.3-5.4,2.3c-2.2,0-4-0.8-5.5-2.3c-1.5-1.5-2.3-3.3-2.3-5.5c0-2.1,0.7-4,2.3-5.5
			c1.5-1.6,3.3-2.3,5.4-2.3c2.1,0,3.9,0.8,5.4,2.3C279.4,382.4,280.1,384.2,280.1,386.4z"/>
		<path d="M338.3,374.7h-13.4c-0.6,0-1.1,0.2-1.6,0.6c-0.4,0.4-0.6,1-0.6,1.6c0,0.6,0.2,1.2,0.7,1.6c0.4,0.4,1,0.6,1.6,0.6h4.4v16.5
			c0,0.6,0.2,1.2,0.7,1.6c0.4,0.4,1,0.7,1.7,0.7c0.6,0,1.2-0.2,1.6-0.6c0.4-0.4,0.7-1,0.7-1.6v-16.5h4.4c0.6,0,1.2-0.2,1.6-0.7
			c0.4-0.4,0.6-1,0.6-1.6c0-0.6-0.2-1.2-0.7-1.6C339.5,374.9,338.9,374.7,338.3,374.7z"/>
		<path d="M371.3,375.3c-0.4,0.4-0.7,1-0.7,1.6v0.1c-0.8-0.8-1.8-1.4-2.9-1.9c-1.5-0.6-3.2-1-4.8-1c-3.4,0-6.3,1.2-8.7,3.6
			c-2.4,2.4-3.6,5.3-3.6,8.7c0,3.4,1.2,6.3,3.6,8.6c2.4,2.3,5.3,3.5,8.7,3.5c3,0,5.5-1,7.7-2.8v0.1c0,0.6,0.2,1.2,0.7,1.6
			c0.9,0.9,2.4,0.9,3.3,0c0.4-0.4,0.6-1,0.6-1.6v-18.9c0-0.6-0.2-1.2-0.7-1.6C373.7,374.4,372.1,374.4,371.3,375.3z M370.6,386.4
			c0,2.1-0.7,3.9-2.2,5.5c-1.5,1.5-3.3,2.3-5.4,2.3c-2.2,0-4-0.8-5.5-2.3c-1.5-1.5-2.3-3.3-2.3-5.5c0-2.1,0.7-4,2.3-5.5
			c1.5-1.6,3.3-2.3,5.4-2.3c2.1,0,3.9,0.8,5.4,2.3C369.8,382.4,370.6,384.2,370.6,386.4z"/>
		<path d="M434.3,377.6c-2.4-2.3-5.3-3.5-8.7-3.5c-3.4,0-6.3,1.2-8.7,3.5c-2.4,2.4-3.6,5.3-3.6,8.6c0,3.4,1.2,6.3,3.6,8.7
			c2.4,2.4,5.3,3.6,8.7,3.6c3.5,0,6.7-1.4,9.3-4.3c0.4-0.5,0.6-1.1,0.6-1.7c0-0.8-0.3-1.4-1.1-1.9c-1.3-0.7-2.4-0.5-3.8,1.3
			c-0.5,0.6-1.2,1.1-2.1,1.5c-1,0.4-1.9,0.7-3,0.7c-1.9,0-3.7-0.8-5.4-2.5c-1.3-1.3-2.1-3-2.2-5l0,0h17.2c1.2,0,1.7-0.6,1.9-1.1
			c0.2-0.5,0.3-0.9,0.3-1.4l0-0.3C437,381.5,436,379.4,434.3,377.6z M432,382.1c-7.9,0-11.3,0-12.8,0c0.3-0.4,0.6-0.8,1-1.2
			c1.5-1.6,3.3-2.4,5.4-2.4c2.1,0,3.8,0.8,5.4,2.4C431.4,381.3,431.8,381.7,432,382.1z"/>
		<path d="M466.2,391.8l-7.7-16.7c-0.4-0.6-0.8-1-1.4-1c-0.8,0-1.2,0.7-1.3,1l-9.4,20.3c-0.1,0.3-0.1,0.5-0.1,0.7
			c0,0.6,0.3,1,0.5,1.2c0.4,0.4,1,0.6,1.7,0.6c0.7,0,1.3-0.1,1.7-0.4c0.4-0.3,0.7-0.7,1.1-1.4l2.8-6.6c0.8-1.7,1.4-3.3,2.1-4.7
			c0.6-1.3,1-2.2,1.1-2.5l5.9,13.9c0.2,0.6,0.6,1,0.9,1.3c0.4,0.3,1.1,0.5,2.1,0.5c1.2,0,1.9-0.7,1.9-1.8c0-0.3-0.1-0.7-0.2-1
			C467.6,394.9,467.1,393.8,466.2,391.8z"/>
		<path d="M497.8,377.6c-2.4-2.3-5.3-3.5-8.7-3.5c-3.4,0-6.3,1.2-8.7,3.5c-2.4,2.4-3.6,5.3-3.6,8.6c0,3.4,1.2,6.3,3.6,8.7
			c2.4,2.4,5.3,3.6,8.7,3.6c3.5,0,6.7-1.4,9.3-4.3c0.4-0.5,0.6-1.1,0.6-1.7c0-0.8-0.3-1.4-1.1-1.9c-1.3-0.7-2.4-0.5-3.8,1.3
			c-0.5,0.6-1.2,1.1-2.1,1.5c-1,0.4-1.9,0.7-3,0.7c-1.9,0-3.7-0.8-5.4-2.5c-1.3-1.3-2.1-3-2.2-5l0,0h17.2c1.2,0,1.7-0.6,1.9-1.1
			c0.2-0.5,0.3-0.9,0.3-1.4l0-0.3C500.6,381.5,499.6,379.4,497.8,377.6z M495.6,382.1c-7.9,0-11.3,0-12.8,0c0.3-0.4,0.6-0.8,1-1.2
			c1.5-1.6,3.3-2.4,5.4-2.4c2.1,0,3.8,0.8,5.4,2.4C495,381.3,495.3,381.7,495.6,382.1z"/>
		<path d="M528,392.8c-0.7-1-1.6-2.1-2.6-3.3c-1-1.3-1.8-2.4-2.6-3.4c-0.6-0.8-1-1.3-1.2-1.6c0.4-0.4,1.4-1.3,3-2.7l3-2.7
			c0.5-0.4,0.7-0.9,0.8-1.6c0-0.6-0.2-1.2-0.7-1.7c-0.4-0.4-0.9-0.7-1.6-0.7c-0.6,0-1.1,0.2-1.6,0.6l-7.3,6.7
			c-0.3,0.2-0.5,0.5-0.7,0.6v-6.2c0-0.6-0.2-1.2-0.7-1.6c-0.9-0.9-2.5-0.8-3.3,0c-0.4,0.4-0.7,1-0.7,1.6v18.8c0,0.6,0.2,1.2,0.7,1.6
			c0.4,0.4,1,0.7,1.7,0.7c0.6,0,1.2-0.2,1.6-0.6c0.4-0.4,0.7-1,0.7-1.6v-6.6c0-0.2,0.1-0.3,0.1-0.3c0.2-0.2,0.5-0.5,0.8-0.8
			c0.3-0.3,0.5-0.5,0.8-0.8c0.1-0.1,0.2-0.2,0.2-0.2c0.2,0.3,0.5,0.8,1,1.4c0.7,1,1.5,2.2,2.5,3.5l3.4,5.1c0.4,0.5,0.8,0.8,1.4,0.9
			h0.4c0.6,0,1.1-0.2,1.4-0.5c0.7-0.6,0.8-1.2,0.8-1.7c0-0.5-0.1-1-0.4-1.4L528,392.8z"/>
		<path d="M554.4,374.7H541c-0.6,0-1.1,0.2-1.6,0.6c-0.4,0.4-0.7,1-0.7,1.6c0,0.6,0.2,1.2,0.7,1.6c0.4,0.4,1,0.6,1.6,0.6h4.4v16.5
			c0,0.6,0.2,1.2,0.7,1.6c0.4,0.4,1,0.7,1.7,0.7c0.6,0,1.2-0.2,1.6-0.6c0.4-0.4,0.7-1,0.7-1.6v-16.5h4.4c0.6,0,1.2-0.2,1.6-0.7
			c0.4-0.4,0.6-1,0.6-1.6c0-0.6-0.2-1.2-0.7-1.6C555.5,374.9,555,374.7,554.4,374.7z"/>
		<path d="M579.7,374.1c-1.7,0-3.3,0.3-4.8,1c-1.1,0.5-2.1,1.1-2.9,1.9v0c0-0.6-0.2-1.2-0.7-1.6c-0.9-0.8-2.4-0.9-3.3,0
			c-0.4,0.4-0.6,1-0.6,1.6v25.2c0,0.6,0.2,1.1,0.6,1.6c0.4,0.4,1,0.6,1.6,0.6c0.6,0,1.2-0.2,1.6-0.6c0.4-0.4,0.7-1,0.7-1.6v-6.3
			c0.8,0.7,1.7,1.3,2.8,1.8c1.5,0.6,3.2,1,4.9,1c3.4,0,6.3-1.2,8.7-3.5c2.4-2.3,3.6-5.3,3.6-8.6c0-3.4-1.2-6.3-3.6-8.7
			C586,375.3,583.1,374.1,579.7,374.1z M587.4,386.4c0,2.1-0.7,3.9-2.3,5.5c-1.5,1.6-3.3,2.3-5.5,2.3c-2.1,0-3.9-0.8-5.4-2.3
			c-1.5-1.6-2.2-3.3-2.2-5.5s0.7-4,2.3-5.5c1.5-1.6,3.3-2.3,5.4-2.3c2.1,0,3.9,0.8,5.4,2.3C586.7,382.4,587.4,384.2,587.4,386.4z"/>
		<path d="M614.5,374.1c-3.3,0-6.2,1.2-8.6,3.6c-2.4,2.4-3.6,5.3-3.6,8.6c0,3.3,1.2,6.3,3.6,8.6c2.4,2.4,5.3,3.6,8.6,3.6
			c3.4,0,6.3-1.2,8.7-3.6c2.4-2.4,3.6-5.3,3.6-8.6c0-3.3-1.2-6.2-3.6-8.6C620.7,375.3,617.8,374.1,614.5,374.1z M622.1,386.3
			c0,2.1-0.7,3.9-2.2,5.5c-1.5,1.6-3.3,2.3-5.4,2.3c-2.1,0-3.9-0.8-5.4-2.3c-1.5-1.6-2.3-3.4-2.3-5.5c0-2.1,0.7-3.9,2.3-5.5
			c1.5-1.6,3.3-2.3,5.4-2.3c2.1,0,3.9,0.8,5.4,2.3C621.4,382.4,622.1,384.2,622.1,386.3z"/>
		<path d="M654.3,375.3c-0.4,0.4-0.7,1-0.7,1.6v6.7h-11.2v-6.7c0-0.6-0.2-1.2-0.7-1.6c-0.9-0.9-2.5-0.8-3.3,0
			c-0.4,0.4-0.7,1-0.7,1.6v18.8c0,0.6,0.2,1.2,0.7,1.6c0.8,0.8,2.4,0.9,3.3,0c0.4-0.4,0.7-1,0.7-1.6v-7.5h11.2v7.5
			c0,0.6,0.2,1.2,0.7,1.6c0.4,0.4,1,0.7,1.7,0.7c0.6,0,1.2-0.2,1.6-0.6c0.4-0.4,0.7-1,0.7-1.6v-18.8c0-0.6-0.2-1.2-0.7-1.6
			C656.7,374.4,655.1,374.5,654.3,375.3z"/>
		<path d="M670.1,367.3c-0.6,0.6-1,1.4-1,2.3c0,0.9,0.3,1.7,1,2.2c0.6,0.6,1.4,0.8,2.3,0.8c0.9,0,1.6-0.3,2.2-0.9
			c0.6-0.6,0.9-1.3,0.9-2.2c0-0.9-0.3-1.7-0.9-2.3C673.4,366.2,671.3,366.1,670.1,367.3z"/>
		<path d="M670.8,375.3c-0.4,0.4-0.7,1-0.7,1.6v18.8c0,0.6,0.2,1.2,0.7,1.6c0.4,0.4,1,0.7,1.6,0.7c0.6,0,1.2-0.2,1.6-0.6
			c0.4-0.4,0.7-1,0.7-1.6v-18.8c0-0.6-0.2-1.2-0.7-1.6C673.2,374.5,671.6,374.5,670.8,375.3z"/>
		<path d="M702.6,392.8c-0.7-1-1.6-2.1-2.6-3.3l-2.6-3.4c-0.6-0.8-1-1.3-1.2-1.6c0.4-0.4,1.4-1.3,3-2.7l3-2.7
			c0.5-0.4,0.7-0.9,0.8-1.6c0-0.6-0.2-1.2-0.7-1.7c-0.4-0.4-0.9-0.7-1.6-0.7c-0.6,0-1.1,0.2-1.6,0.6l-8,7.4v-6.2
			c0-0.6-0.2-1.2-0.7-1.6c-0.9-0.9-2.5-0.8-3.3,0c-0.4,0.4-0.7,1-0.7,1.6v18.8c0,0.6,0.2,1.2,0.7,1.6c0.4,0.4,1,0.7,1.7,0.7
			c0.6,0,1.2-0.2,1.6-0.6c0.4-0.4,0.7-1,0.7-1.6v-6.6c0-0.2,0.1-0.3,0.1-0.3c0.2-0.2,0.5-0.5,0.8-0.8c0.3-0.3,0.5-0.5,0.8-0.8
			c0.1-0.1,0.2-0.2,0.2-0.2c0.2,0.3,0.5,0.8,1,1.4c0.7,1,1.5,2.2,2.5,3.5l3.4,5.1c0.4,0.5,0.8,0.8,1.4,0.9h0.5
			c0.6,0,1.1-0.2,1.4-0.5c0.7-0.6,0.8-1.2,0.8-1.7c0-0.5-0.1-1-0.4-1.4L702.6,392.8z"/>
		<path d="M736.6,375.3c-0.8-0.8-2.4-0.9-3.3,0c-0.4,0.4-0.6,1-0.6,1.6v0.1c-0.8-0.8-1.8-1.4-2.9-1.9c-1.5-0.6-3.2-1-4.8-1
			c-3.4,0-6.3,1.2-8.7,3.6c-2.4,2.4-3.6,5.3-3.6,8.7c0,3.4,1.2,6.3,3.6,8.6c2.4,2.3,5.3,3.5,8.7,3.5c3,0,5.5-1,7.7-2.8v0.1
			c0,0.6,0.2,1.2,0.7,1.6c0.9,0.9,2.4,0.9,3.3,0c0.4-0.4,0.6-1,0.6-1.6v-18.9C737.3,376.3,737,375.7,736.6,375.3z M732.7,386.4
			c0,2.1-0.7,3.9-2.2,5.5c-1.5,1.5-3.3,2.3-5.4,2.3c-2.2,0-4-0.8-5.5-2.3c-1.5-1.6-2.3-3.3-2.3-5.5c0-2.1,0.7-4,2.3-5.5
			c1.5-1.6,3.3-2.3,5.4-2.3c2.1,0,3.9,0.8,5.4,2.3C731.9,382.4,732.7,384.2,732.7,386.4z"/>
	</g>
</g>
</svg>
